<svg id="file-attach" xmlns="http://www.w3.org/2000/svg" viewBox="0 0 16 16"><defs><style>.cls-1{fill:#fffff3;}</style></defs><title>attach</title><path class="cls-1" d="M7.07,11.65,5,13.84a2.06,2.06,0,0,1-3,0,2.35,2.35,0,0,1,0-3.19L5.51,6.94a2.07,2.07,0,0,1,3,0,2.24,2.24,0,0,1,.6,1.33.72.72,0,0,0,.78.66.74.74,0,0,0,.62-.83,3.83,3.83,0,0,0-1-2.22,3.36,3.36,0,0,0-5,0L1,9.59A3.94,3.94,0,0,0,1,14.9,3.42,3.42,0,0,0,3.52,16,3.42,3.42,0,0,0,6,14.9l2.05-2.19a.77.77,0,0,0,0-1.06.66.66,0,0,0-1,0Z" transform="translate(0 0)"/><path class="cls-1" d="M10,1.1,8,3.26A.79.79,0,0,0,8,4.32a.68.68,0,0,0,1,0l2-2.16a2,2,0,0,1,3,0,2.35,2.35,0,0,1,0,3.19L10.49,9.06a2.07,2.07,0,0,1-3,0,2.39,2.39,0,0,1-.6-1.27.7.7,0,0,0-.79-.64.75.75,0,0,0-.6.85,3.78,3.78,0,0,0,1,2.12,3.36,3.36,0,0,0,5,0L15,6.41A3.94,3.94,0,0,0,15,1.1a3.36,3.36,0,0,0-5,0Z" transform="translate(0 0)"/></svg>