<svg id="Слой_1" data-name="Слой 1" xmlns="http://www.w3.org/2000/svg" viewBox="0 0 32 32"><defs><style>.cls-1{fill:#fff;}</style></defs><title>exit</title><path class="cls-1" d="M17.33,32A2.66,2.66,0,0,0,20,29.33v-4a1.34,1.34,0,0,0-2.67,0v3.34a.66.66,0,0,1-.66.66H4A1.32,1.32,0,0,1,2.67,28V4A1.32,1.32,0,0,1,4,2.67H16A1.32,1.32,0,0,1,17.33,4V6.67a1.34,1.34,0,0,0,2.67,0v-4A2.66,2.66,0,0,0,17.33,0H2.67A2.66,2.66,0,0,0,0,2.67V29.33A2.66,2.66,0,0,0,2.67,32Z" transform="translate(0 0)"/><path class="cls-1" d="M31.07,13.82,26.46,9.47a1.32,1.32,0,0,0-2.21.93,1.17,1.17,0,0,0,.42.93L28,14.49H9.38a1.33,1.33,0,1,0,0,2.66H28l-3.33,3.52a1.38,1.38,0,0,0-.42.93,1.41,1.41,0,0,0,2.21,1.07l4.61-4.85a2.62,2.62,0,0,0,0-4Z" transform="translate(0 0)"/></svg>