<svg id="Слой_1" data-name="Слой 1" xmlns="http://www.w3.org/2000/svg" viewBox="0 0 32 32"><defs><style>.cls-1{fill:#fff;}</style></defs><title>login</title><path class="cls-1" d="M10.67,32A2.66,2.66,0,0,1,8,29.33v-4a1.34,1.34,0,0,1,2.67,0v3.34a.66.66,0,0,0,.66.66H28A1.32,1.32,0,0,0,29.33,28V4A1.32,1.32,0,0,0,28,2.67H12A1.32,1.32,0,0,0,10.67,4V6.67A1.34,1.34,0,0,1,8,6.67v-4A2.66,2.66,0,0,1,10.67,0H29.33A2.66,2.66,0,0,1,32,2.67V29.33A2.66,2.66,0,0,1,29.33,32Z"/><path class="cls-1" d="M23.07,13.82,18.46,9.47a1.32,1.32,0,0,0-2.21.93,1.17,1.17,0,0,0,.42.93L20,14.49H1.38a1.33,1.33,0,1,0,0,2.66H20l-3.33,3.52a1.38,1.38,0,0,0-.42.93,1.41,1.41,0,0,0,2.21,1.07l4.61-4.85a2.62,2.62,0,0,0,0-4Z"/></svg>