<!-- Generated by IcoMoon.io -->
<svg version="1.1" xmlns="http://www.w3.org/2000/svg" width="32" height="32" viewBox="0 0 32 32">
<title>login</title>
<path d="M10.667 32c-1.473 0-2.667-1.194-2.667-2.667v-4c0-0.736 0.597-1.333 1.333-1.333s1.333 0.597 1.333 1.333v3.333c0 0.368 0.298 0.667 0.667 0.667h16.667c0.736 0 1.333-0.597 1.333-1.333v-24c0-0.736-0.597-1.333-1.333-1.333h-16c-0.736 0-1.333 0.597-1.333 1.333v2.667c0 0.736-0.597 1.333-1.333 1.333s-1.333-0.597-1.333-1.333v-4c0-1.473 1.194-2.667 2.667-2.667h18.667c1.473 0 2.667 1.194 2.667 2.667v26.667c0 1.473-1.194 2.667-2.667 2.667h-18.667z"></path>
<path d="M23.070 13.82l-4.613-4.353c-0.826-0.8-2.203-0.133-2.203 0.933 0 0.4 0.138 0.667 0.413 0.933l3.333 3.153h-18.623c-0.826 0-1.377 0.533-1.377 1.333s0.551 1.333 1.377 1.333h18.623l-3.333 3.514c-0.276 0.267-0.413 0.667-0.413 0.933 0 1.067 1.377 1.733 2.203 1.067l4.613-4.847c1.239-1.067 1.239-2.933 0-4z"></path>
</svg>
