<!-- Generated by IcoMoon.io -->
<svg version="1.1" xmlns="http://www.w3.org/2000/svg" width="32" height="32" viewBox="0 0 32 32">
<title>expand</title>
<path d="M12 30.667c0 0.736-0.597 1.333-1.333 1.333h-9.333c-0.736 0-1.333-0.597-1.333-1.333v-9.333c0-0.736 0.597-1.333 1.333-1.333s1.333 0.597 1.333 1.333v8h8c0.736 0 1.333 0.597 1.333 1.333z"></path>
<path d="M1.333 12c-0.736 0-1.333-0.597-1.333-1.333v-9.333c0-0.736 0.597-1.333 1.333-1.333h9.333c0.736 0 1.333 0.597 1.333 1.333s-0.597 1.333-1.333 1.333h-8v8c0 0.736-0.597 1.333-1.333 1.333z"></path>
<path d="M30.667 20c0.736 0 1.333 0.597 1.333 1.333v9.333c0 0.736-0.597 1.333-1.333 1.333h-9.333c-0.736 0-1.333-0.597-1.333-1.333s0.597-1.333 1.333-1.333h8v-8c0-0.736 0.597-1.333 1.333-1.333z"></path>
<path d="M20 1.333c0-0.736 0.597-1.333 1.333-1.333h9.333c0.736 0 1.333 0.597 1.333 1.333v9.333c0 0.736-0.597 1.333-1.333 1.333s-1.333-0.597-1.333-1.333v-8h-8c-0.736 0-1.333-0.597-1.333-1.333z"></path>
</svg>
