<svg id="Слой_1" data-name="Слой 1" xmlns="http://www.w3.org/2000/svg" viewBox="0 0 32 32"><defs><style>.cls-1{fill:#fff;}</style></defs><title>user</title><path class="cls-1" d="M16,29.33A13.33,13.33,0,1,1,29.33,16,13.33,13.33,0,0,1,16,29.33ZM16,32A16,16,0,1,0,0,16,16,16,0,0,0,16,32Z" transform="translate(0 0)"/><path class="cls-1" d="M16,17.33a4,4,0,1,1,4-4A4,4,0,0,1,16,17.33ZM16,20a6.67,6.67,0,1,0-6.67-6.67A6.67,6.67,0,0,0,16,20Z" transform="translate(0 0)"/><path class="cls-1" d="M16,20a9.29,9.29,0,0,0-9.37,7L4,26.34c1.51-6,6.81-9,12-9s10.45,3,12,9L25.37,27A9.29,9.29,0,0,0,16,20Z" transform="translate(0 0)"/></svg>