<svg id="Слой_1" data-name="Слой 1" xmlns="http://www.w3.org/2000/svg" viewBox="0 0 32 25.6"><defs><style>.cls-1{fill:#fff;fill-rule:evenodd;}</style></defs><title>image</title><path class="cls-1" d="M2.11,0H29.89A2.13,2.13,0,0,1,32,2.13V23.47a2.13,2.13,0,0,1-2.11,2.13H2.11A2.13,2.13,0,0,1,0,23.47V2.13A2.13,2.13,0,0,1,2.11,0ZM29.89,1.83H2.11a.31.31,0,0,0-.3.3v16l5.48-4.21a2.74,2.74,0,0,1,3-.14l5.16,3.29a.59.59,0,0,0,.68-.09l6.28-7a1.89,1.89,0,0,1,1.49-.65,1.92,1.92,0,0,1,1.44.76l4.84,6.28V2.13A.31.31,0,0,0,29.89,1.83ZM2.11,23.77H29.89a.31.31,0,0,0,.3-.3V19.32l-6.27-8.13s-.06-.07-.08-.07l0,0s0,0,0,0l-6.28,7a2.38,2.38,0,0,1-3,.42L9.34,15.32a1,1,0,0,0-1,0L1.81,20.42v3A.31.31,0,0,0,2.11,23.77ZM16.58,9.14A3.21,3.21,0,1,1,13.37,5.9,3.23,3.23,0,0,1,16.58,9.14Zm-1.81,0a1.4,1.4,0,1,0-1.4,1.42A1.41,1.41,0,0,0,14.77,9.14Z" transform="translate(0 0)"/></svg>